<mxfile host="app.diagrams.net" modified="2024-03-14T11:37:16.942Z" agent="Mozilla/5.0 (Windows NT 10.0; Win64; x64) AppleWebKit/537.36 (KHTML, like Gecko) Chrome/122.0.0.0 Safari/537.36 Edg/122.0.0.0" etag="mzf68CwKqgxCrPx0C_Ai" version="24.0.4" type="google">
  <diagram name="Page-1" id="kQjiJKAKycLMIJpvtQml">
    <mxGraphModel grid="1" page="1" gridSize="10" guides="1" tooltips="1" connect="1" arrows="1" fold="1" pageScale="1" pageWidth="827" pageHeight="1169" math="0" shadow="0">
      <root>
        <mxCell id="0" />
        <mxCell id="1" parent="0" />
        <mxCell id="5qsCx0lOZfrQlQDf6-gL-1" value="&lt;font style=&quot;font-size: 14px;&quot;&gt;Prototype: int&amp;nbsp; player1, player2)&amp;nbsp;&lt;br&gt;1: Kéo&amp;nbsp;&lt;br&gt;2: Búa&amp;nbsp;&lt;br&gt;3: Giấy&amp;nbsp;&lt;br&gt;&lt;/font&gt;" style="text;html=1;align=left;verticalAlign=middle;whiteSpace=wrap;rounded=0;fontStyle=1" vertex="1" parent="1">
          <mxGeometry width="220" height="80" as="geometry" />
        </mxCell>
        <mxCell id="5qsCx0lOZfrQlQDf6-gL-4" value="" style="edgeStyle=orthogonalEdgeStyle;rounded=0;orthogonalLoop=1;jettySize=auto;html=1;" edge="1" parent="1" target="5qsCx0lOZfrQlQDf6-gL-3">
          <mxGeometry relative="1" as="geometry">
            <mxPoint x="280" y="210" as="sourcePoint" />
          </mxGeometry>
        </mxCell>
        <mxCell id="5qsCx0lOZfrQlQDf6-gL-6" value="" style="edgeStyle=orthogonalEdgeStyle;rounded=0;orthogonalLoop=1;jettySize=auto;html=1;" edge="1" parent="1" source="5qsCx0lOZfrQlQDf6-gL-2" target="5qsCx0lOZfrQlQDf6-gL-5">
          <mxGeometry relative="1" as="geometry" />
        </mxCell>
        <mxCell id="5qsCx0lOZfrQlQDf6-gL-2" value="Start" style="ellipse;whiteSpace=wrap;html=1;" vertex="1" parent="1">
          <mxGeometry x="220" width="120" height="80" as="geometry" />
        </mxCell>
        <mxCell id="5qsCx0lOZfrQlQDf6-gL-8" value="" style="edgeStyle=orthogonalEdgeStyle;rounded=0;orthogonalLoop=1;jettySize=auto;html=1;" edge="1" parent="1" source="5qsCx0lOZfrQlQDf6-gL-3" target="5qsCx0lOZfrQlQDf6-gL-7">
          <mxGeometry relative="1" as="geometry" />
        </mxCell>
        <mxCell id="5qsCx0lOZfrQlQDf6-gL-12" value="" style="edgeStyle=orthogonalEdgeStyle;rounded=0;orthogonalLoop=1;jettySize=auto;html=1;" edge="1" parent="1" source="5qsCx0lOZfrQlQDf6-gL-3" target="5qsCx0lOZfrQlQDf6-gL-11">
          <mxGeometry relative="1" as="geometry" />
        </mxCell>
        <mxCell id="5qsCx0lOZfrQlQDf6-gL-3" value="(player1 == 1 &amp;amp;&amp;amp; player2 == 1) || (player1 == 2 &amp;amp;&amp;amp; player2 == 2) || (player1 == 3 &amp;amp;&amp;amp; player2 == 3)" style="rhombus;whiteSpace=wrap;html=1;fontStyle=1" vertex="1" parent="1">
          <mxGeometry x="140" y="240" width="280" height="160" as="geometry" />
        </mxCell>
        <mxCell id="5qsCx0lOZfrQlQDf6-gL-5" value="Input player1, player2" style="shape=parallelogram;perimeter=parallelogramPerimeter;whiteSpace=wrap;html=1;fixedSize=1;" vertex="1" parent="1">
          <mxGeometry x="200" y="120" width="160" height="80" as="geometry" />
        </mxCell>
        <mxCell id="5qsCx0lOZfrQlQDf6-gL-10" value="" style="edgeStyle=orthogonalEdgeStyle;rounded=0;orthogonalLoop=1;jettySize=auto;html=1;" edge="1" parent="1" source="5qsCx0lOZfrQlQDf6-gL-7" target="5qsCx0lOZfrQlQDf6-gL-9">
          <mxGeometry relative="1" as="geometry" />
        </mxCell>
        <mxCell id="5qsCx0lOZfrQlQDf6-gL-7" value="(player1 == 1 &amp;amp;&amp;amp; player2 == 3) || (player1 == 2 &amp;amp;&amp;amp; player2 == 1) || (player1 == 3 &amp;amp;&amp;amp; player2 == 2)" style="rhombus;whiteSpace=wrap;html=1;fontStyle=1" vertex="1" parent="1">
          <mxGeometry x="110" y="420" width="330" height="170" as="geometry" />
        </mxCell>
        <mxCell id="5qsCx0lOZfrQlQDf6-gL-9" value="(player2 == 1 &amp;&amp; player1 == 3) || (player2 == 2 &amp;&amp; player1 == 1) || (player2 == 3 &amp;&amp; player1 == 2)" style="rhombus;whiteSpace=wrap;html=1;" vertex="1" parent="1">
          <mxGeometry x="90" y="640" width="370" height="140" as="geometry" />
        </mxCell>
        <mxCell id="5qsCx0lOZfrQlQDf6-gL-25" value="" style="edgeStyle=orthogonalEdgeStyle;rounded=0;orthogonalLoop=1;jettySize=auto;html=1;" edge="1" parent="1" source="5qsCx0lOZfrQlQDf6-gL-11" target="5qsCx0lOZfrQlQDf6-gL-22">
          <mxGeometry relative="1" as="geometry" />
        </mxCell>
        <mxCell id="5qsCx0lOZfrQlQDf6-gL-11" value="Display&amp;nbsp;Hoa nhau" style="shape=parallelogram;perimeter=parallelogramPerimeter;whiteSpace=wrap;html=1;fixedSize=1;" vertex="1" parent="1">
          <mxGeometry x="520" y="275" width="210" height="90" as="geometry" />
        </mxCell>
        <mxCell id="5qsCx0lOZfrQlQDf6-gL-13" value="" style="edgeStyle=orthogonalEdgeStyle;rounded=0;orthogonalLoop=1;jettySize=auto;html=1;exitX=1;exitY=0.5;exitDx=0;exitDy=0;" edge="1" parent="1" source="5qsCx0lOZfrQlQDf6-gL-9" target="5qsCx0lOZfrQlQDf6-gL-14">
          <mxGeometry relative="1" as="geometry">
            <mxPoint x="420" y="340" as="sourcePoint" />
          </mxGeometry>
        </mxCell>
        <mxCell id="5qsCx0lOZfrQlQDf6-gL-23" value="" style="edgeStyle=orthogonalEdgeStyle;rounded=0;orthogonalLoop=1;jettySize=auto;html=1;" edge="1" parent="1" source="5qsCx0lOZfrQlQDf6-gL-14" target="5qsCx0lOZfrQlQDf6-gL-22">
          <mxGeometry relative="1" as="geometry" />
        </mxCell>
        <mxCell id="5qsCx0lOZfrQlQDf6-gL-14" value="DIsplay Nguoi choi 2 thang" style="shape=parallelogram;perimeter=parallelogramPerimeter;whiteSpace=wrap;html=1;fixedSize=1;" vertex="1" parent="1">
          <mxGeometry x="490" y="665" width="210" height="90" as="geometry" />
        </mxCell>
        <mxCell id="5qsCx0lOZfrQlQDf6-gL-15" value="" style="edgeStyle=orthogonalEdgeStyle;rounded=0;orthogonalLoop=1;jettySize=auto;html=1;exitX=1;exitY=0.5;exitDx=0;exitDy=0;" edge="1" parent="1" source="5qsCx0lOZfrQlQDf6-gL-7" target="5qsCx0lOZfrQlQDf6-gL-16">
          <mxGeometry relative="1" as="geometry">
            <mxPoint x="410" y="515" as="sourcePoint" />
          </mxGeometry>
        </mxCell>
        <mxCell id="5qsCx0lOZfrQlQDf6-gL-24" value="" style="edgeStyle=orthogonalEdgeStyle;rounded=0;orthogonalLoop=1;jettySize=auto;html=1;" edge="1" parent="1" source="5qsCx0lOZfrQlQDf6-gL-16" target="5qsCx0lOZfrQlQDf6-gL-22">
          <mxGeometry relative="1" as="geometry" />
        </mxCell>
        <mxCell id="5qsCx0lOZfrQlQDf6-gL-16" value="Display&amp;nbsp;Nguoi choi 1 thang" style="shape=parallelogram;perimeter=parallelogramPerimeter;whiteSpace=wrap;html=1;fixedSize=1;" vertex="1" parent="1">
          <mxGeometry x="500" y="460" width="210" height="90" as="geometry" />
        </mxCell>
        <mxCell id="5qsCx0lOZfrQlQDf6-gL-21" value="" style="edgeStyle=orthogonalEdgeStyle;rounded=0;orthogonalLoop=1;jettySize=auto;html=1;entryX=0.5;entryY=1;entryDx=0;entryDy=0;exitX=0.939;exitY=0.618;exitDx=0;exitDy=0;exitPerimeter=0;" edge="1" parent="1" source="5qsCx0lOZfrQlQDf6-gL-18" target="5qsCx0lOZfrQlQDf6-gL-22">
          <mxGeometry relative="1" as="geometry">
            <mxPoint x="775" y="815" as="targetPoint" />
            <Array as="points">
              <mxPoint x="840" y="836" />
            </Array>
          </mxGeometry>
        </mxCell>
        <mxCell id="5qsCx0lOZfrQlQDf6-gL-18" value="Display Loi cu phap nhap" style="shape=parallelogram;perimeter=parallelogramPerimeter;whiteSpace=wrap;html=1;fixedSize=1;" vertex="1" parent="1">
          <mxGeometry x="470" y="780" width="210" height="90" as="geometry" />
        </mxCell>
        <mxCell id="5qsCx0lOZfrQlQDf6-gL-22" value="End" style="ellipse;whiteSpace=wrap;html=1;" vertex="1" parent="1">
          <mxGeometry x="780" y="130" width="120" height="80" as="geometry" />
        </mxCell>
        <mxCell id="5qsCx0lOZfrQlQDf6-gL-27" value="" style="edgeStyle=orthogonalEdgeStyle;rounded=0;orthogonalLoop=1;jettySize=auto;html=1;exitX=0.5;exitY=1;exitDx=0;exitDy=0;entryX=0;entryY=0.5;entryDx=0;entryDy=0;" edge="1" parent="1" source="5qsCx0lOZfrQlQDf6-gL-9" target="5qsCx0lOZfrQlQDf6-gL-18">
          <mxGeometry relative="1" as="geometry">
            <mxPoint x="300" y="835" as="sourcePoint" />
            <mxPoint x="360" y="835" as="targetPoint" />
            <Array as="points">
              <mxPoint x="275" y="825" />
            </Array>
          </mxGeometry>
        </mxCell>
      </root>
    </mxGraphModel>
  </diagram>
</mxfile>
